<svg width="30" height="40" viewBox="0 0 30 40" fill="none" xmlns="http://www.w3.org/2000/svg">
<path d="M29.0313 39.0697H0.966797V0.930176H18.87L29.0313 10.2325V39.0697Z" fill="white"/>
<path d="M9.75042 22.9158C9.31003 22.4971 9.30611 21.8145 9.74166 21.3912C10.1772 20.9679 10.8873 20.9641 11.3277 21.3828L9.75042 22.9158ZM14.2119 25.641L15.0615 26.3446C14.8587 26.571 14.5672 26.7063 14.2566 26.7182C13.946 26.7301 13.6442 26.6176 13.4232 26.4075L14.2119 25.641ZM19.8358 17.7147C20.24 17.2636 20.9482 17.213 21.4175 17.6016C21.8867 17.9902 21.9394 18.6709 21.5351 19.122L19.8358 17.7147ZM11.3277 21.3828L15.0005 24.8745L13.4232 26.4075L9.75042 22.9158L11.3277 21.3828ZM13.3622 24.9373L19.8358 17.7147L21.5351 19.122L15.0615 26.3446L13.3622 24.9373Z" fill="#0B1A22"/>
<path d="M0.824038 0.000917716C0.355416 0.0433751 -0.00194013 0.420336 7.92638e-06 0.870686V39.1302C7.92638e-06 39.6106 0.40712 39.9997 0.909022 40H29.091C29.5929 39.9997 30 39.6106 30 39.1302V10.4356C30.0019 10.2008 29.9045 9.97551 29.7301 9.81053L19.7301 0.245645C19.5589 0.0870326 19.3293 -0.000611819 19.0909 0.000909868H0.909006C0.880786 -0.000303289 0.85225 -0.000303289 0.824029 0.000909868L0.824038 0.000917716ZM1.81836 1.74014H18.1821V10.4355C18.1821 10.9156 18.5892 11.305 19.0911 11.305H28.182V38.2605H1.81828L1.81836 1.74014ZM20.0003 2.96293L26.9035 9.56604H20.0003V2.96293Z" fill="#0B1A22"/>
</svg>
